# xmcd CD database file
#
# Track frame offsets:
#	150
#	19505
#	30717
#	57665
#	70267
#	87555
#	103175
#	121572
#	134322
#	150537
#	163567
#	173395
#	189270
#
# Disc length: 2697 seconds
#
# Revision: 1
# Processed by: cddbd v1.5PL3 Copyright (c) Steve Scherf et al.
# Submitted via: CDex 1.50beta9
#
DISCID=9e0a870d
DTITLE=Toni Price - Swim Away
DYEAR=1993
DGENRE=Country
TTITLE0=Daylight
TTITLE1=Throw Me A Bone
TTITLE2=Richest One
TTITLE3=In Care Of The Blues
TTITLE4=Just To Hear Your Voice
TTITLE5=Twelve Bar Blues
TTITLE6=Moonlight Blues
TTITLE7=I Doubt If It Does To You
TTITLE8=Chain Of Love
TTITLE9=Hell On Love
TTITLE10=Thinkin' 'bout Lovin' You Again
TTITLE11=Lucky
TTITLE12=Swim Away
EXTD=YEAR: 1993
EXTT0=
EXTT1=
EXTT2=
EXTT3=
EXTT4=
EXTT5=
EXTT6=
EXTT7=
EXTT8=
EXTT9=
EXTT10=
EXTT11=
EXTT12=
PLAYORDER=
